<svg width="154" height="152" viewBox="0 0 154 152" fill="none" xmlns="http://www.w3.org/2000/svg">
<path d="M78.4374 85.0663C94.1504 70.491 112.322 70.4366 126.804 74.1376C134.048 75.9892 140.312 78.7725 144.77 81.0985C146.996 82.2597 148.763 83.3027 149.969 84.0517C150.345 84.2855 150.666 84.4912 150.93 84.662C150.624 101.819 142.934 118.26 129.381 130.48C115.541 142.959 96.7298 150 77.0771 150C57.4243 150 38.6123 142.959 24.7724 130.48C11.4795 118.495 3.8271 102.449 3.24994 85.6503C9.45674 85.9568 14.961 87.6319 20.2148 89.7323C23.14 90.9018 25.9454 92.1849 28.7851 93.4442C31.6023 94.6936 34.439 95.9126 37.3212 96.8935C43.1155 98.8654 49.1902 99.9086 56.0029 98.3759C62.7888 96.8491 70.0807 92.8181 78.4374 85.0663Z" fill="#0B1722" stroke="black" stroke-width="4"/>
<path d="M75.6109 68.3297C60.1442 83.1889 41.977 83.5744 27.4355 80.1378C20.1607 78.4184 13.8506 75.7506 9.35432 73.506C7.10934 72.3853 5.32437 71.374 4.10656 70.647C3.72649 70.4201 3.40244 70.2202 3.13655 70.0542C3.1548 52.8941 10.5683 36.315 23.9155 23.8498C37.5446 11.1214 56.2355 3.73933 75.8851 3.3814C95.5347 3.02348 114.461 9.72037 128.508 21.9446C141.999 33.6861 149.919 49.5903 150.777 66.3765C144.566 66.183 139.035 64.6093 133.747 62.605C130.803 61.4889 127.976 60.2571 125.116 59.0496C122.278 57.8518 119.422 56.6837 116.524 55.7554C110.697 53.8893 104.606 52.9569 97.8202 54.6134C91.0607 56.2635 83.837 60.4268 75.6109 68.3297Z" fill="#F9F6EB" stroke="black" stroke-width="4"/>
</svg>
